<svg width="64" height="63" viewBox="0 0 64 63" fill="none" xmlns="http://www.w3.org/2000/svg">
<path d="M36.0531 27.447C33.9022 25.299 30.9868 24.0925 27.9471 24.0925C24.9073 24.0925 21.9919 25.299 19.8411 27.447L11.7324 35.553C9.58223 37.7032 8.37427 40.6195 8.37427 43.6603C8.37427 46.7011 9.58223 49.6174 11.7324 51.7676C13.8826 53.9178 16.7989 55.1258 19.8397 55.1258C22.8806 55.1258 25.7969 53.9178 27.9471 51.7676L32.0001 47.7146" stroke="#454748" stroke-width="2" stroke-linecap="round" stroke-linejoin="round"/>
<path d="M27.947 35.553C30.0979 37.701 33.0133 38.9074 36.053 38.9074C39.0927 38.9074 42.0082 37.701 44.159 35.553L52.2676 27.447C54.4178 25.2968 55.6258 22.3805 55.6258 19.3397C55.6258 16.2988 54.4178 13.3826 52.2676 11.2324C50.1175 9.08217 47.2012 7.87421 44.1603 7.87421C41.1195 7.87421 38.2032 9.08217 36.053 11.2324L32 15.2854" stroke="#454748" stroke-width="2" stroke-linecap="round" stroke-linejoin="round"/>
</svg>
