<svg width="28" height="29" viewBox="0 0 28 29" fill="none" xmlns="http://www.w3.org/2000/svg">
<path d="M16.1 28.665C22.8354 27.6457 28 21.8016 28 14.7439C28 6.96814 21.7322 0.665039 14 0.665039C6.2678 0.665039 0 6.96814 0 14.7439C0 21.8016 5.1646 27.6471 11.9 28.665V18.9675H9.8C9.24304 18.9675 8.7089 18.745 8.31507 18.349C7.92125 17.9529 7.7 17.4158 7.7 16.8557C7.7 16.2956 7.92125 15.7585 8.31507 15.3624C8.7089 14.9664 9.24304 14.7439 9.8 14.7439H11.9V11.9281C11.9 10.6212 12.4162 9.36788 13.3352 8.44378C14.2541 7.51967 15.5004 7.00052 16.8 7.00052H17.5C18.057 7.00052 18.5911 7.22301 18.9849 7.61906C19.3787 8.0151 19.6 8.55225 19.6 9.11234C19.6 9.67243 19.3787 10.2096 18.9849 10.6056C18.5911 11.0017 18.057 11.2242 17.5 11.2242H16.8C16.6143 11.2242 16.4363 11.2983 16.305 11.4303C16.1737 11.5624 16.1 11.7414 16.1 11.9281V14.7439H18.2C18.757 14.7439 19.2911 14.9664 19.6849 15.3624C20.0787 15.7585 20.3 16.2956 20.3 16.8557C20.3 17.4158 20.0787 17.9529 19.6849 18.349C19.2911 18.745 18.757 18.9675 18.2 18.9675H16.1V28.665Z" fill="black"/>
</svg>
