<svg width="24" height="25" viewBox="0 0 24 25" fill="none" xmlns="http://www.w3.org/2000/svg">
<path d="M12.001 2.66504C6.47598 2.66504 2.00098 7.14004 2.00098 12.665C1.99917 14.7643 2.65874 16.8109 3.88603 18.514C5.11333 20.2172 6.84598 21.4905 8.83798 22.153C9.33798 22.24 9.52598 21.94 9.52598 21.677C9.52598 21.44 9.51298 20.653 9.51298 19.815C7.00098 20.278 6.35098 19.203 6.15098 18.64C6.03798 18.352 5.55098 17.465 5.12598 17.227C4.77598 17.04 4.27598 16.577 5.11298 16.565C5.90098 16.552 6.46298 17.29 6.65098 17.59C7.55098 19.102 8.98798 18.677 9.56298 18.415C9.65098 17.765 9.91298 17.328 10.201 17.078C7.97598 16.828 5.65098 15.965 5.65098 12.14C5.65098 11.052 6.03798 10.153 6.67598 9.45304C6.57598 9.20304 6.22598 8.17804 6.77598 6.80304C6.77598 6.80304 7.61298 6.54004 9.52598 7.82704C10.3401 7.60168 11.1812 7.48831 12.026 7.49004C12.876 7.49004 13.726 7.60204 14.526 7.82704C16.439 6.52704 17.276 6.80304 17.276 6.80304C17.826 8.17804 17.476 9.20304 17.376 9.45304C18.013 10.153 18.401 11.04 18.401 12.14C18.401 15.978 16.064 16.828 13.839 17.078C14.201 17.39 14.514 17.99 14.514 18.928C14.514 20.265 14.501 21.34 14.501 21.678C14.501 21.94 14.689 22.252 15.189 22.152C17.1735 21.4811 18.8978 20.2051 20.1195 18.5034C21.3412 16.8017 21.9989 14.7599 22 12.665C22 7.14004 17.525 2.66504 12 2.66504" fill="black"/>
</svg>
