<svg width="21" height="19" viewBox="0 0 21 19" fill="none" xmlns="http://www.w3.org/2000/svg">
<g clip-path="url(#clip0_38_346)">
<path d="M7.18896 1.34354C5.12706 1.94879 3.34889 3.09756 2.11562 4.62113C0.882351 6.1447 0.258993 7.96276 0.337106 9.80825C0.415219 11.6537 1.19069 13.4294 2.54961 14.8744C3.90852 16.3194 5.77926 17.3576 7.88704 17.8365C9.59587 18.2096 11.3862 18.226 13.1042 17.8843C14.6605 17.5885 16.0993 16.9557 17.2798 16.0481C18.5085 15.0745 19.4003 13.836 19.8594 12.4657C20.3584 10.9756 20.4472 9.4085 20.1189 7.8848H10.523V11.253H16.0803C15.9693 11.7902 15.7313 12.3029 15.3805 12.7604C15.0298 13.218 14.5736 13.611 14.0393 13.9159C13.3607 14.2957 12.5957 14.5513 11.7934 14.6662C10.9889 14.7927 10.1636 14.7927 9.359 14.6662C8.54352 14.5235 7.77209 14.2387 7.09383 13.8299C6.00422 13.1773 5.18606 12.2501 4.75612 11.1807C4.31891 10.0912 4.31891 8.91013 4.75612 7.82068C5.06216 7.05704 5.56809 6.36174 6.23614 5.78669C7.00063 5.11653 7.96851 4.6375 9.03358 4.40215C10.0986 4.1668 11.2198 4.18422 12.2739 4.45252C13.0974 4.66641 13.8504 5.04012 14.4729 5.54386C15.0996 5.01638 15.7251 4.48753 16.3496 3.95732C16.672 3.6722 17.0235 3.40073 17.3411 3.1088C16.3908 2.36051 15.2753 1.77825 14.0586 1.39538C11.8429 0.714642 9.41861 0.696347 7.18896 1.34354Z" fill="white"/>
<path d="M7.18892 1.34355C9.4184 0.695914 11.8427 0.713727 14.0586 1.39403C15.2755 1.77949 16.3905 2.36456 17.3394 3.11562C17.017 3.40756 16.6768 3.6804 16.3479 3.96415C15.7224 4.49254 15.0974 5.01911 14.4729 5.54387C13.8504 5.04013 13.0973 4.66642 12.2739 4.45252C11.2201 4.18329 10.099 4.16485 9.03365 4.39924C7.9683 4.63363 6.99983 5.11178 6.23449 5.78124C5.56644 6.35629 5.06052 7.05159 4.75448 7.81523L1.41235 5.62572C2.60863 3.61841 4.67991 2.08297 7.18892 1.34355Z" fill="#E33629"/>
<path d="M0.525594 7.79477C0.705229 7.04146 1.00346 6.31194 1.41231 5.62572L4.75444 7.82069C4.31723 8.91013 4.31723 10.0912 4.75444 11.1807C3.64093 11.9082 2.52689 12.6394 1.41231 13.3743C0.388798 11.6504 0.0766443 9.68621 0.525594 7.79477Z" fill="#F8BD00"/>
<path d="M10.5229 7.88344H20.1188C20.4471 9.40714 20.3583 10.9742 19.8593 12.4644C19.4002 13.8347 18.5084 15.0732 17.2797 16.0467C16.2012 15.3346 15.1177 14.628 14.0392 13.9159C14.5739 13.6107 15.0303 13.2173 15.381 12.7592C15.7318 12.3012 15.9696 11.7879 16.0802 11.2502H10.5229C10.5213 10.1289 10.5229 9.00616 10.5229 7.88344Z" fill="#587DBD"/>
<path d="M1.41064 13.3743C2.52522 12.6467 3.63926 11.9155 4.75277 11.1807C5.18356 12.2505 6.00289 13.1777 7.09371 13.8299C7.77407 14.2368 8.54717 14.5193 9.36371 14.6593C10.1683 14.7859 10.9936 14.7859 11.7982 14.6593C12.6004 14.5444 13.3654 14.2889 14.044 13.909C15.1225 14.6211 16.2059 15.3278 17.2845 16.0399C16.1042 16.9481 14.6653 17.5812 13.1089 17.8774C11.3909 18.2192 9.60058 18.2028 7.89175 17.8297C6.54024 17.5243 5.27783 16.9861 4.18366 16.2486C3.02554 15.4706 2.07964 14.4901 1.41064 13.3743Z" fill="#319F43"/>
</g>
<defs>
<clipPath id="clip0_38_346">
<rect width="20.6364" height="17.4615" fill="white" transform="translate(0 0.769226)"/>
</clipPath>
</defs>
</svg>
