<svg width="76" height="63" viewBox="0 0 76 63" fill="none" xmlns="http://www.w3.org/2000/svg">
<g clip-path="url(#clip0_11_24)">
<path d="M5.59928 29.9093V52.4539H16.9618L17.5355 52.5106C28.0843 54.577 35.0743 56.0669 38.558 56.9899C43.1855 58.2152 44.9105 58.5145 48.0493 58.6909C50.3968 58.8263 53.063 58.0672 54.278 57.0277C54.9493 56.4544 55.4518 55.2763 55.6505 53.4493C55.6913 53.066 55.8542 52.6991 56.1221 52.3871C56.39 52.075 56.753 51.8293 57.173 51.6758C58.1068 51.3356 58.883 50.7812 59.5318 49.9748C60.1318 49.2377 60.5218 47.8643 60.593 45.8767C60.6048 45.5111 60.7279 45.1542 60.9504 44.8399C61.1729 44.5256 61.4875 44.2644 61.8643 44.0812C64.0468 43.0196 65.1268 41.8226 65.3518 40.4177C65.5993 38.8648 64.9993 37.1165 63.428 35.1257C63.0594 34.6588 62.9221 34.0895 63.0453 33.5389C63.1686 32.9883 63.5427 32.4998 64.088 32.1773C65.5918 31.289 66.4168 30.0542 66.623 28.3028C66.953 25.5119 64.8343 23.4487 60.038 23.036C55.7663 22.6797 51.453 22.9818 47.3105 23.9275C46.8406 24.0306 46.3453 24.0189 45.8831 23.8937C45.4208 23.7684 45.0107 23.5349 44.7011 23.2205C44.3914 22.9062 44.1951 22.524 44.1352 22.1191C44.0754 21.7143 44.1544 21.3034 44.363 20.935C46.238 17.6023 47.2805 14.8523 47.5243 12.7229C47.843 9.89736 47.0668 7.84986 45.2518 6.16146C43.8755 4.88256 41.6743 4.15176 40.8493 4.30296C39.7618 4.49826 39.053 5.02746 38.1305 6.87966C37.5868 7.97586 37.3243 8.90826 36.8743 11.0849C36.443 13.1513 36.2068 14.0837 35.7155 15.3059C34.2343 19.0103 30.6005 22.8502 25.7218 25.4993C22.2997 27.3495 18.5947 28.8013 14.708 29.8148C14.4648 29.8766 14.2122 29.9085 13.958 29.9093H5.59928ZM5.44178 56.7473C4.23053 56.7757 3.14303 56.5489 2.23178 56.0134C1.06928 55.3298 0.521776 54.2525 0.510526 53.0114L0.521776 29.944C0.394276 28.7155 0.825526 27.5878 1.84553 26.7499C2.80178 25.9624 4.05053 25.5907 5.37053 25.6159H13.5643C16.8788 24.7289 20.0388 23.4769 22.9618 21.8926C26.8918 19.7569 29.7868 16.6951 30.893 13.9357C31.2718 12.9844 31.4743 12.1969 31.8568 10.3447C32.3743 7.85931 32.6968 6.70326 33.4393 5.21646C34.9768 2.12316 36.9943 0.611158 39.7768 0.104008C42.5143 -0.393692 46.5005 0.932458 49.0205 3.27606C51.8143 5.87166 53.048 9.11931 52.5905 13.1324C52.393 14.8544 51.8255 16.7906 50.888 18.941C54.0897 18.5488 57.3366 18.4895 60.5555 18.7646C68.0818 19.4104 72.308 23.5274 71.693 28.7312C71.423 30.974 70.4555 32.8798 68.8093 34.376C70.193 36.6157 70.7443 38.8301 70.3993 40.991C70.0018 43.4795 68.3518 45.5522 65.6068 47.1619C65.393 49.3448 64.7968 51.0868 63.7393 52.3909C62.9035 53.4427 61.8168 54.3372 60.548 55.018C60.143 57.1726 59.2918 58.8578 57.9005 60.0422C55.5943 62.0141 51.473 63.1891 47.708 62.9749C44.1343 62.7733 42.0193 62.4079 37.0318 61.0849C33.743 60.2123 26.933 58.7633 16.6693 56.7473H5.44178ZM11.8205 28.9297C11.8195 28.6478 11.8848 28.3686 12.0125 28.108C12.1402 27.8474 12.3279 27.6105 12.5647 27.411C12.8016 27.2114 13.0831 27.053 13.3929 26.945C13.7028 26.837 14.035 26.7814 14.3705 26.7814C14.7054 26.7822 15.0368 26.8384 15.3458 26.9468C15.6548 27.0552 15.9354 27.2137 16.1715 27.4132C16.4075 27.6127 16.5946 27.8493 16.7218 28.1095C16.849 28.3697 16.914 28.6484 16.913 28.9297V53.1154C16.9135 53.3967 16.848 53.6753 16.7204 53.9353C16.5927 54.1953 16.4052 54.4317 16.1688 54.6309C15.9324 54.8301 15.6515 54.9882 15.3423 55.0963C15.0331 55.2043 14.7016 55.2601 14.3668 55.2605C14.0319 55.2601 13.7004 55.2043 13.3912 55.0963C13.082 54.9882 12.8012 54.8301 12.5648 54.6309C12.3283 54.4317 12.1409 54.1953 12.0132 53.9353C11.8855 53.6753 11.82 53.3967 11.8205 53.1154V28.9297Z" fill="#454748"/>
</g>
<defs>
<clipPath id="clip0_11_24">
<rect width="75" height="63" fill="white" transform="translate(0.5)"/>
</clipPath>
</defs>
</svg>
