<svg width="24" height="25" viewBox="0 0 24 25" fill="none" xmlns="http://www.w3.org/2000/svg">
<path d="M17 0.142578C18.6576 0.142578 20.2473 0.856215 21.4194 2.1265C22.5915 3.39678 23.25 5.11965 23.25 6.9161V17.7537C23.25 19.5502 22.5915 21.2731 21.4194 22.5433C20.2473 23.8136 18.6576 24.5273 17 24.5273H7C5.3424 24.5273 3.75269 23.8136 2.58058 22.5433C1.40848 21.2731 0.75 19.5502 0.75 17.7537V6.9161C0.75 5.11965 1.40848 3.39678 2.58058 2.1265C3.75269 0.856215 5.3424 0.142578 7 0.142578H17ZM12 6.9161C10.6739 6.9161 9.40215 7.48701 8.46447 8.50324C7.52678 9.51946 7 10.8978 7 12.3349C7 13.7721 7.52678 15.1504 8.46447 16.1666C9.40215 17.1828 10.6739 17.7537 12 17.7537C13.3261 17.7537 14.5979 17.1828 15.5355 16.1666C16.4732 15.1504 17 13.7721 17 12.3349C17 10.8978 16.4732 9.51946 15.5355 8.50324C14.5979 7.48701 13.3261 6.9161 12 6.9161ZM12 9.62551C12.663 9.62551 13.2989 9.91096 13.7678 10.4191C14.2366 10.9272 14.5 11.6163 14.5 12.3349C14.5 13.0535 14.2366 13.7426 13.7678 14.2508C13.2989 14.7589 12.663 15.0443 12 15.0443C11.337 15.0443 10.7011 14.7589 10.2322 14.2508C9.76339 13.7426 9.5 13.0535 9.5 12.3349C9.5 11.6163 9.76339 10.9272 10.2322 10.4191C10.7011 9.91096 11.337 9.62551 12 9.62551ZM17.625 4.88404C17.2935 4.88404 16.9755 5.02677 16.7411 5.28083C16.5067 5.53488 16.375 5.87946 16.375 6.23875C16.375 6.59804 16.5067 6.94261 16.7411 7.19667C16.9755 7.45073 17.2935 7.59345 17.625 7.59345C17.9565 7.59345 18.2745 7.45073 18.5089 7.19667C18.7433 6.94261 18.875 6.59804 18.875 6.23875C18.875 5.87946 18.7433 5.53488 18.5089 5.28083C18.2745 5.02677 17.9565 4.88404 17.625 4.88404Z" fill="black"/>
</svg>
