<svg width="64" height="63" viewBox="0 0 64 63" fill="none" xmlns="http://www.w3.org/2000/svg">
<path d="M53 42V22.3125C53 20.139 51.3174 18.375 49.115 18.375C47.75 18.375 45.125 19.1625 45.125 22.3125V14.4375M45.125 14.4375C45.125 12.264 43.4424 10.5 41.24 10.5C39.9091 10.5 37.25 11.2875 37.25 14.4375M45.125 14.4375V28.875M37.25 14.4375V9.1875C37.25 7.014 35.5674 5.25 33.365 5.25C31.16 5.25 29.375 7.014 29.375 9.1875V14.4375M37.25 14.4375V28.875M29.375 14.4375C29.375 11.2875 26.7684 10.5 25.4375 10.5C23.2325 10.5 21.5 12.3139 21.5 14.49V36.75M29.375 14.4375V28.875" stroke="#454748" stroke-width="2" stroke-linecap="round" stroke-linejoin="round"/>
<path d="M53 42C53 52.5 44.7733 57.75 34.625 57.75C24.4768 57.75 20.9855 55.125 13.1105 42L8.98663 35.1619C7.57963 32.8834 8.70575 29.9276 11.2993 29.0876C12.1474 28.8117 13.0598 28.8027 13.9132 29.0619C14.7666 29.321 15.5199 29.8357 16.0715 30.5366L21.5 36.8366" stroke="#454748" stroke-width="2" stroke-linecap="round" stroke-linejoin="round"/>
</svg>
