<svg width="22" height="21" viewBox="0 0 22 21" fill="none" xmlns="http://www.w3.org/2000/svg">
<path d="M1.84416 1.49282C2.0538 1.46807 2.26612 1.502 2.45815 1.59095C2.65019 1.67991 2.81465 1.8205 2.93374 1.99752C4.6428 4.53751 6.69459 5.59398 8.97218 5.83398C9.08334 4.84457 9.34618 3.86693 9.8406 3.00576C10.5654 1.74223 11.7442 0.812824 13.4278 0.469296C15.7551 -0.00599664 17.5267 0.850471 18.5538 1.8987L20.6287 1.50459C20.8459 1.46325 21.0701 1.48588 21.275 1.56982C21.4799 1.65375 21.6568 1.79548 21.785 1.97829C21.9132 2.16109 21.9872 2.37733 21.9984 2.6015C22.0095 2.82566 21.9574 3.04839 21.848 3.2434L19.8564 6.79868C20.0382 11.9292 18.6348 15.5104 15.6428 17.9775C14.0565 19.2857 11.7847 20.028 9.29176 20.2575C6.77912 20.488 3.9388 20.2092 1.11585 19.3716C0.874648 19.3001 0.662878 19.1508 0.512497 18.9463C0.362115 18.7418 0.281282 18.4932 0.282197 18.2379C0.283112 17.9826 0.365726 17.7346 0.517569 17.5312C0.669413 17.3278 0.882247 17.1801 1.12395 17.1104C2.54353 16.6998 3.62501 16.3457 4.60112 15.7257C3.2128 14.9775 2.19038 13.9987 1.46669 12.8834C0.461635 11.3328 0.0887924 9.60338 0.014687 8.04456C-0.0594184 6.48574 0.16174 5.04104 0.395635 3.99987C0.528793 3.40575 0.683951 2.81046 0.898162 2.24105C0.973723 2.04034 1.10195 1.86448 1.26892 1.73258C1.4359 1.60067 1.63409 1.51775 1.84416 1.49282Z" fill="black"/>
</svg>
